<?xml version="1.0" encoding="UTF-8"?>
<!DOCTYPE svg PUBLIC "-//W3C//DTD SVG 1.1//EN" "http://www.w3.org/Graphics/SVG/1.1/DTD/svg11.dtd">
<svg xmlns="http://www.w3.org/2000/svg" version="1.1" width="3840px" height="2160px" style="shape-rendering:geometricPrecision; text-rendering:geometricPrecision; image-rendering:optimizeQuality; fill-rule:evenodd; clip-rule:evenodd" xmlns:xlink="http://www.w3.org/1999/xlink">
<g><path style="opacity:0.995" fill="#fe5d0c" d="M 1883.5,28.5 C 1909.37,29.4199 1935.21,29.4199 1961,28.5C 1961.33,29.1667 1961.67,29.8333 1962,30.5C 2115.47,38.7725 2253.31,92.9392 2375.5,193C 2509.21,307.534 2591.38,451.367 2622,624.5C 2625.05,640.332 2626.05,656.332 2625,672.5C 2621.3,679.21 2616.46,685.043 2610.5,690C 2593.02,701.075 2574.35,709.408 2554.5,715C 2537.42,719.488 2520.92,723.654 2505,727.5C 2502.16,726.5 2499.16,727.167 2496,729.5C 2494.6,728.949 2493.27,728.616 2492,728.5C 2462.41,734.635 2432.74,738.968 2403,741.5C 2396.59,742.029 2390.26,743.029 2384,744.5C 2381.44,744.659 2378.77,744.325 2376,743.5C 2371.9,744.096 2367.9,745.096 2364,746.5C 2359.02,746.557 2354.02,746.223 2349,745.5C 2344.5,746.855 2340.16,747.855 2336,748.5C 2325.48,748.302 2314.48,748.302 2303,748.5C 2302.33,749.167 2301.67,749.833 2301,750.5C 2291.76,749.652 2282.09,749.319 2272,749.5C 2264.31,750.731 2256.31,751.731 2248,752.5C 2222.65,752.467 2197.65,752.467 2173,752.5C 2165.16,751.133 2157.49,750.133 2150,749.5C 2143.03,749.753 2136.36,750.086 2130,750.5C 2125.67,749.5 2121.33,748.5 2117,747.5C 2112.95,748.328 2108.95,748.661 2105,748.5C 2100.19,745.73 2095.19,745.063 2090,746.5C 2082.92,744.799 2075.75,743.299 2068.5,742C 2058.71,738.506 2052.54,731.339 2050,720.5C 2049.67,634.833 2049.33,549.167 2049,463.5C 2045.31,443.805 2033.64,432.139 2014,428.5C 1993.71,429.197 1980.71,439.531 1975,459.5C 1974.33,566.167 1974.33,672.833 1975,779.5C 1975.33,790.5 1975.67,801.5 1976,812.5C 1978.77,821.606 1984.61,827.772 1993.5,831C 2056.74,831.169 2119.9,831.669 2183,832.5C 2232.06,831.682 2281.39,831.349 2331,831.5C 2332.31,833.891 2333.31,833.891 2334,831.5C 2336,832.167 2338,832.833 2340,833.5C 2342.09,832.754 2344.09,832.421 2346,832.5C 2355,833.167 2364,833.833 2373,834.5C 2374.4,833.949 2375.73,833.616 2377,833.5C 2385.09,834.948 2393.25,835.948 2401.5,836.5C 2437.98,838.564 2473.31,845.397 2507.5,857C 2524.96,863.729 2541.29,872.729 2556.5,884C 2575.99,901.815 2586.82,923.982 2589,950.5C 2590.7,973.431 2589.03,996.097 2584,1018.5C 2570.59,1081.72 2552.59,1143.38 2530,1203.5C 2489.93,1303.62 2442.93,1400.62 2389,1494.5C 2307,1633.5 2216.66,1766.83 2118,1894.5C 2055.45,1975.24 1990.28,2053.9 1922.5,2130.5C 1917.51,2126.34 1913.01,2121.68 1909,2116.5C 1790.67,1965.47 1680,1809.13 1577,1647.5C 1550.28,1603.68 1526.78,1558.18 1506.5,1511C 1506.83,1510.67 1507.17,1510.33 1507.5,1510C 1504.09,1502.7 1503.25,1494.87 1505,1486.5C 1506.79,1483.7 1508.96,1481.2 1511.5,1479C 1530.56,1467.45 1550.73,1460.28 1572,1457.5C 1588.88,1453.38 1605.88,1450.05 1623,1447.5C 1623.33,1447.83 1623.67,1448.17 1624,1448.5C 1635.97,1446.63 1647.97,1444.96 1660,1443.5C 1668.09,1443.79 1676.42,1443.79 1685,1443.5C 1685.33,1442.83 1685.67,1442.17 1686,1441.5C 1719.9,1441.56 1754.24,1441.56 1789,1441.5C 1805.52,1443.93 1822.69,1446.1 1840.5,1448C 1854.29,1451.13 1867.96,1454.8 1881.5,1459C 1893.31,1463.49 1902.14,1471.32 1908,1482.5C 1908.56,1486.19 1909.23,1489.85 1910,1493.5C 1908.66,1545.48 1908.32,1597.48 1909,1649.5C 1916.71,1668.61 1930.88,1677.44 1951.5,1676C 1967.43,1672.12 1977.6,1662.29 1982,1646.5C 1982.67,1556.83 1982.67,1467.17 1982,1377.5C 1978.47,1365.97 1970.97,1358.47 1959.5,1355C 1948.26,1354.82 1937.09,1354.32 1926,1353.5C 1787.84,1353.46 1638.84,1353.79 1479,1354.5C 1463.53,1352.74 1448.36,1349.24 1433.5,1344C 1427.02,1340.8 1420.69,1336.64 1414.5,1331.5C 1389.72,1305.51 1370.05,1277.01 1355.5,1246C 1344.32,1226.32 1334.66,1206.32 1326.5,1186C 1274.76,1069.11 1238.93,947.948 1219,822.5C 1195.53,635.61 1240.53,465.61 1354,312.5C 1479.98,152.392 1641.32,59.0587 1838,32.5C 1840.23,32.3737 1842.57,32.7071 1845,33.5C 1849.02,32.607 1853.02,31.607 1857,30.5C 1863.06,30.6344 1869.39,30.6344 1876,30.5C 1878.61,29.8767 1881.11,29.21 1883.5,28.5 Z"/></g>
</svg>
